[mp3 @ 0x5e1fc6962880] Estimating duration from bitrate, this may be inaccurate
Input #0, mp3, from 'reports/roundtable-user-qa-2026-06-08-latest/audio/10-200.mp3':
  Duration: 00:00:06.79, start: 0.000000, bitrate: 128 kb/s
  Stream #0:0: Audio: mp3, 44100 Hz, mono, fltp, 128 kb/s
Stream mapping:
  Stream #0:0 -> #0:0 (mp3 (mp3float) -> pcm_s16le (native))
Press [q] to stop, [?] for help
Output #0, null, to 'pipe:':
  Metadata:
    encoder         : Lavf59.27.100
  Stream #0:0: Audio: pcm_s16le, 44100 Hz, mono, s16, 705 kb/s
    Metadata:
      encoder         : Lavc59.37.100 pcm_s16le
size=N/A time=00:00:06.79 bitrate=N/A speed= 394x    
video:0kB audio:585kB subtitle:0kB other streams:0kB global headers:0kB muxing overhead: unknown
[Parsed_volumedetect_0 @ 0x5e1fc6976c00] n_samples: 299520
[Parsed_volumedetect_0 @ 0x5e1fc6976c00] mean_volume: -23.4 dB
[Parsed_volumedetect_0 @ 0x5e1fc6976c00] max_volume: -6.4 dB
[Parsed_volumedetect_0 @ 0x5e1fc6976c00] histogram_6db: 25
[Parsed_volumedetect_0 @ 0x5e1fc6976c00] histogram_7db: 72
[Parsed_volumedetect_0 @ 0x5e1fc6976c00] histogram_8db: 210
